<?xml version="1.0" encoding="UTF-8" standalone="no"?>
<!-- Created with Inkscape (http://www.inkscape.org/) -->

<svg
   xmlns:dc="http://purl.org/dc/elements/1.1/"
   xmlns:cc="http://creativecommons.org/ns#"
   xmlns:rdf="http://www.w3.org/1999/02/22-rdf-syntax-ns#"
   xmlns:svg="http://www.w3.org/2000/svg"
   xmlns="http://www.w3.org/2000/svg"
   xmlns:sodipodi="http://sodipodi.sourceforge.net/DTD/sodipodi-0.dtd"
   xmlns:inkscape="http://www.inkscape.org/namespaces/inkscape"
   width="24px"
   height="24px"
   viewBox="0 0 24 24"
   version="1.1"
   id="SVGRoot"
   inkscape:version="0.92.1 r15371"
   sodipodi:docname="ImageTools.svg"
   inkscape:export-filename="/home/dominic/Entwicklung/web/typo3/extensions/dj_imagetools/ext_icon.gif.png"
   inkscape:export-xdpi="96"
   inkscape:export-ydpi="96"
   enable-background="new">
  <sodipodi:namedview
     id="base"
     pagecolor="#ffffff"
     bordercolor="#666666"
     borderopacity="1.0"
     inkscape:pageopacity="0.0"
     inkscape:pageshadow="2"
     inkscape:zoom="64.690783"
     inkscape:cx="12.183557"
     inkscape:cy="13.193074"
     inkscape:document-units="px"
     inkscape:current-layer="layer4"
     showgrid="true"
     inkscape:window-width="1920"
     inkscape:window-height="1016"
     inkscape:window-x="0"
     inkscape:window-y="27"
     inkscape:window-maximized="1"
     inkscape:grid-bbox="true">
    <inkscape:grid
       type="xygrid"
       id="grid71" />
  </sodipodi:namedview>
  <defs
     id="defs18">
    <inkscape:perspective
       sodipodi:type="inkscape:persp3d"
       inkscape:vp_x="0 : 12 : 1"
       inkscape:vp_y="0 : 1000 : 0"
       inkscape:vp_z="24 : 12 : 1"
       inkscape:persp3d-origin="12 : 8 : 1"
       id="perspective107" />
    <filter
       inkscape:collect="always"
       style="color-interpolation-filters:sRGB"
       id="filter39">
      <feBlend
         inkscape:collect="always"
         mode="multiply"
         in2="BackgroundImage"
         id="feBlend41" />
    </filter>
  </defs>
  <metadata
     id="metadata21">
    <rdf:RDF>
      <cc:Work
         rdf:about="">
        <dc:format>image/svg+xml</dc:format>
        <dc:type
           rdf:resource="http://purl.org/dc/dcmitype/StillImage" />
        <dc:title />
      </cc:Work>
    </rdf:RDF>
  </metadata>
  <g
     inkscape:groupmode="layer"
     id="layer2"
     inkscape:label="Ebene 2"
     style="display:inline" />
  <g
     inkscape:groupmode="layer"
     id="layer4"
     inkscape:label="Image"
     style="display:inline;filter:url(#filter39)">
    <path
       id="path4154"
       style="stroke-width:0.65742606"
       d="m 14.011719,9.5917969 c -0.0092,0.011694 -0.02643,0.015226 -0.04102,0.021484 0.04851,-0.00435 0.09609,-0.016328 0.144531,-0.021484 z m 1.021484,0 c -0.06859,0.015092 -0.133495,0.038302 -0.158203,0.042969 -0.220325,0.04895 -0.444357,0.07102 -0.667969,0.097656 0.01155,0.031094 0.0043,0.049991 0.002,0.072266 0.09626,0.021101 0.192252,0.044814 0.285157,0.082031 0.09031,0.036178 0.284371,0.1428582 0.15039,0.2871092 -0.04495,0.04839 -0.126405,0.03892 -0.189453,0.05859 -0.116437,0.01295 -0.231791,0.02731 -0.347656,0.04102 h 9.035156 V 22.544922 H 9.1953125 V 11.019531 c -0.025198,0.02553 -0.058042,0.02352 -0.083984,0.002 -3.424e-4,0.002 -0.00161,0.0038 -0.00195,0.0059 -0.00185,0.01096 -0.00239,0.02216 -0.00391,0.0332 0.00145,0.0091 0.00329,0.01817 0.00391,0.02734 -5.303e-4,0.01292 -0.00259,0.0242 -0.00195,0.03711 1.757e-4,0.0036 0.00462,0.0064 0.00586,0.0098 0.00214,0.0058 0.00472,0.01153 0.00586,0.01758 0.00584,0.03104 0.00394,0.02727 0,0.05664 -0.007,0.05223 -0.026837,0.04005 -0.048828,0.01563 0.00749,0.0026 0.022702,0.02231 0.015625,0.08399 -0.00535,0.101046 -0.039383,0.0938 -0.1660156,0.02539 -0.015066,-0.0081 -0.00987,-0.0327 -0.015625,-0.04883 -0.037525,-0.10519 -0.053184,-0.139886 -0.097656,-0.253906 -0.028536,-0.06992 -0.056322,-0.140445 -0.083984,-0.210938 -0.00179,-9.46e-4 -0.00412,-5.75e-4 -0.00586,-0.002 -0.00446,-0.0027 9.608e-4,-0.01075 0,-0.01563 -0.00662,-0.0169 -0.012919,-0.03388 -0.019531,-0.05078 -0.011704,4.19e-4 -0.023379,0.0018 -0.035156,0.002 -0.015552,0.0023 -0.031408,0.005 -0.046875,0.0078 -4.96e-4,0.0056 -0.00106,4.46e-4 -0.00195,0.0078 -2.799e-4,0.0024 -0.00429,-0.0074 -0.00195,-0.0078 0.00126,-2.31e-4 0.00265,2.27e-4 0.00391,0 2.372e-4,-0.0027 -1.636e-4,-0.0016 0,-0.0039 -0.00125,-3.39e-4 -0.00266,3.78e-4 -0.00391,0 -0.00643,-0.0019 0.00478,-0.01972 0.00977,-0.03516 1.961e-4,-0.0052 -0.00263,-0.02144 0.00781,-0.03906 0.0044,-0.0081 0.00674,-0.01355 0.00977,-0.01953 -0.019605,0.0038 -0.038801,0.0081 -0.076172,-0.0059 V 23.226562 H 23.777344 V 9.5917969 Z m -2.505859,0.083984 c 0.0036,0.00423 0.01632,0.00366 0.01563,0.00977 -0.0065,0.056768 -0.02554,0.081909 -0.04492,0.1074219 0.05925,-4.86e-5 0.118467,1.107e-4 0.177734,0 0.0054,-5.119e-4 0.01817,-0.0033 0.02344,-0.00391 -0.02686,-6.588e-4 -0.06929,0.011283 -0.06836,-0.011719 0.0018,-0.045215 0.011,-0.075906 0.02149,-0.099609 -0.04037,-2.409e-4 -0.08329,-0.00206 -0.125,-0.00195 z m -1.183594,0.035156 c -0.0631,0.0055 -0.144197,0.023274 -0.21875,0.033203 0.03792,0.0054 0.07525,0.013065 0.113281,0.017578 0.197834,0.023473 0.296077,0.023427 0.423828,0.03125 0.134776,4.26e-5 0.269557,-7.49e-5 0.404297,0 0.04168,-0.011101 0.08337,-0.022165 0.125,-0.033203 -0.07952,-0.00833 -0.158723,-0.017364 -0.238281,-0.025391 -0.343077,-0.017173 -0.433253,-0.018887 -0.609375,-0.023437 z m 2.677734,0.21875 c -0.02946,0.00323 -0.06517,0.011657 -0.08398,0.013672 -0.132512,0.014194 -0.267209,0.018579 -0.400391,0.023437 -0.02108,7.692e-4 -0.03801,-6.596e-4 -0.05859,0 -0.0077,0.015684 1.03e-4,0.03668 -0.01563,0.048828 -0.01917,0.01485 -0.04253,0.02088 -0.06445,0.03125 -0.09384,0.0654 -0.200603,0.106611 -0.306641,0.148437 0.158381,-0.0062 0.316399,-0.0056 0.474609,-0.01758 0.141111,-0.01066 0.281234,-0.03118 0.421875,-0.04687 0.146568,-0.01635 0.292835,-0.03487 0.439453,-0.05078 0.02894,0.0031 0.06036,-3.9e-5 0.08789,0.0098 -0.116272,-0.090532 -0.190904,-0.1172095 -0.425781,-0.1562502 -0.02258,-0.00375 -0.04571,-7.753e-4 -0.06836,-0.00391 z M 13.205078,9.96875 c -0.195342,0.00252 -0.393736,0.00549 -0.601562,0.00586 -0.01557,0.017282 -0.02408,0.034288 -0.04492,0.050782 0.03202,0.0155 0.06517,0.02878 0.09766,0.04297 0.0332,0.03075 0.07817,0.05273 0.09961,0.0918 0.07136,-0.02428 0.142278,-0.04959 0.212891,-0.07617 0.08258,-0.03109 0.159227,-0.07337 0.236328,-0.115234 z m -0.68164,0.011719 c 0.0051,0.00815 4.13e-4,0.0057 0.0078,0.015625 0.0039,0.00513 0.02182,-0.010059 0.01563,-0.011719 -0.0077,-0.00205 -0.01573,-0.00192 -0.02344,-0.00391 z m -0.07617,0.1640622 c -0.005,0.0018 -0.0099,0.0039 -0.01367,0.0059 -0.0016,0.0037 -0.002,0.0082 -0.0039,0.01172 0.02341,0.0029 0.04661,0.0057 0.07031,0.0078 0.0019,1.7e-4 0.0039,-2.9e-5 0.0059,0 -0.01894,-0.0096 -0.03911,-0.01722 -0.05859,-0.02539 z m 2.167968,0.810547 c 0.02193,0.02276 0.04497,0.04524 0.06055,0.07227 0.0348,0.06036 0.07581,0.120519 0.08594,0.189453 0.009,0.06094 -0.0072,0.08146 -0.01367,0.121094 0.155228,0.02206 0.190815,0.111635 0.203125,0.298828 H 21.875 v 5.767578 l -2.65625,-2.283203 c -0.126161,-0.10908 -0.303854,-0.09537 -0.417969,0.02734 l -2.978515,3.197265 -2.314454,-1.869141 c -0.107779,-0.08795 -0.247214,-0.08798 -0.361328,-0.01367 l -2.68164,1.833984 v -3.822266 c -0.0058,-8.21e-4 -0.01173,-0.0011 -0.01758,-0.002 -0.110485,-0.104369 -0.31794,-0.160999 -0.330078,-0.3125 -0.03305,-0.412544 0.155486,-0.404255 0.345703,-0.501953 7.99e-4,-4.11e-4 0.0012,-0.0015 0.002,-0.002 v -1.058594 c -0.09239,0.05284 -0.192077,0.09047 -0.296875,0.01367 -0.3317224,-0.243039 -0.2900014,-0.285642 -0.261719,-0.390625 -0.019882,-0.01225 -0.051063,-0.03475 -0.076172,-0.05078 v 9.693359 H 22.509766 V 10.955078 Z m -0.679687,0.435547 c 0.0036,0.002 0.0063,0.0038 0.0098,0.0059 0.0035,6.26e-4 0.0083,0.0013 0.01172,0.002 -0.0048,-0.0019 -0.0085,-0.0069 -0.01367,-0.0078 -0.0029,-5.21e-4 -0.0049,4.53e-4 -0.0078,0 z m 0.267578,2.701172 c -0.04754,0.06011 -0.08881,0.126521 -0.158203,0.210937 -0.01093,0.0109 -0.02237,0.01685 -0.0332,0.02734 -0.09393,0.116358 -0.196021,0.225982 -0.314453,0.31836 -0.02902,0.02263 -0.05676,0.07862 -0.08984,0.0625 -0.03288,-0.01603 -0.06023,-0.04223 -0.0918,-0.06055 -0.03299,0.01204 -0.05758,0.03118 -0.09375,0.04101 -0.07602,0.02066 -0.152301,0.02181 -0.228516,0.0293 -0.01778,0.0062 -0.02574,0.0015 -0.04297,0.0059 -0.161052,0.01178 -0.322734,0.01145 -0.486329,0.0039 -0.0071,-5.71e-4 -0.01434,-0.0014 -0.02148,-0.002 -0.0079,0.0017 -0.0155,0.0042 -0.02344,0.0059 -0.0096,7.71e-4 -0.0091,-6.76e-4 -0.01758,0 -0.0291,0.0023 -0.03056,-0.0083 -0.04883,-0.0098 -0.09893,-0.0071 -0.198122,-0.01498 -0.296875,-0.01367 -0.02295,3.06e-4 -0.04543,9.53e-4 -0.06836,0.002 -0.0013,5.9e-5 -0.0026,-1.12e-4 -0.0039,0 0.220946,0.203499 0.502598,0.332031 0.816406,0.332031 0.566336,0 1.040639,-0.401777 1.203125,-0.953125 z m 4.845703,1.75 2.826172,2.435547 v 2.904297 H 10.464844 v -2.072266 l 2.839844,-1.943359 2.357421,1.902343 c 0.126794,0.101586 0.304335,0.08824 0.41211,-0.03516 z" />
    <rect
       style="fill:#ffffff"
       id="rect4353"
       width="1"
       height="2"
       x="14"
       y="12" />
    <rect
       style="fill:#ffffff"
       id="rect4358"
       width="1"
       height="2"
       x="14"
       y="12" />
    <rect
       style="fill:#ffffff"
       id="rect4360"
       width="1"
       height="2"
       x="13"
       y="12" />
  </g>
  <g
     inkscape:groupmode="layer"
     id="layer7"
     inkscape:label="Weiß"
     style="display:inline" />
  <g
     inkscape:groupmode="layer"
     id="layer5"
     inkscape:label="Tools"
     style="display:inline">
    <path
       d="M 14.203756,0.682981 H 1.374066 c -0.505542,0 -0.915751,0.410966 -0.915751,0.91744 v 12.852892 c 0,0.506933 0.410209,0.917899 0.915751,0.917899 h 12.82969 c 0.506,0 0.915751,-0.411425 0.915751,-0.917899 V 1.600422 c 0,-0.506475 -0.409751,-0.917441 -0.915751,-0.917441 z m 0.0046,11.989634 c 0,0.714483 -1.069752,1.785749 -1.782462,1.785749 -0.4015,0 -1.343378,-1.143816 -4.865675,-5.45046 L 7.175693,9.393155 7.791694,10.010292 7.018483,10.784928 6.584899,10.381769 6.014273,10.952988 6.416691,11.38783 c 0,0 -2.403046,3.070993 -3.116215,3.070993 -0.712709,-4.59e-4 -1.925461,-1.215448 -1.925461,-1.929472 0,-0.714024 3.065339,-3.121962 3.065339,-3.121962 L 4.873938,9.81055 5.444565,9.239331 5.041689,8.804947 5.815356,8.029852 6.431358,8.646989 6.889692,8.18781 C 6.605066,7.839752 6.299816,7.466898 5.98494,7.082565 5.516064,7.390215 4.956438,7.570673 4.354187,7.570673 2.708767,7.570673 1.375015,6.234461 1.375015,4.586006 1.374983,4.24208 1.435945,3.913308 1.542733,3.606117 L 3.666654,5.733955 5.041657,5.274775 5.49999,3.897237 3.37607,1.769399 C 3.682695,1.662408 4.010863,1.60134 4.354155,1.60134 c 1.64542,0 2.979172,1.336212 2.979172,2.984666 0,0.603362 -0.180125,1.16402 -0.487209,1.633761 0.383626,0.315455 0.755793,0.621269 1.10321,0.906419 L 11.229168,3.840298 11,3 13.291671,1.60134 14.208339,2.519698 12.812253,4.815595 11.973961,4.586006 8.767913,7.797967 c 4.298716,3.529252 5.440426,4.472407 5.440426,4.874648 z"
       id="path4198"
       inkscape:connector-curvature="0"
       style="stroke-width:0.45875663" />
  </g>
</svg>
