<?xml version="1.0" encoding="UTF-8" standalone="no"?>
<!-- Created with Inkscape (http://www.inkscape.org/) -->

<svg
   xmlns:dc="http://purl.org/dc/elements/1.1/"
   xmlns:cc="http://creativecommons.org/ns#"
   xmlns:rdf="http://www.w3.org/1999/02/22-rdf-syntax-ns#"
   xmlns:svg="http://www.w3.org/2000/svg"
   xmlns="http://www.w3.org/2000/svg"
   xmlns:sodipodi="http://sodipodi.sourceforge.net/DTD/sodipodi-0.dtd"
   xmlns:inkscape="http://www.inkscape.org/namespaces/inkscape"
   width="24px"
   height="24px"
   viewBox="0 0 24 24"
   version="1.1"
   id="SVGRoot"
   inkscape:version="0.92.1 r15371"
   sodipodi:docname="ImageTools.svg"
   inkscape:export-filename="/home/dominic/Entwicklung/web/typo3/extensions/dj_imagetools/ext_icon.gif.png"
   inkscape:export-xdpi="96"
   inkscape:export-ydpi="96">
  <sodipodi:namedview
     id="base"
     pagecolor="#ffffff"
     bordercolor="#666666"
     borderopacity="1.0"
     inkscape:pageopacity="0.0"
     inkscape:pageshadow="2"
     inkscape:zoom="64.690783"
     inkscape:cx="9.0225509"
     inkscape:cy="18.881674"
     inkscape:document-units="px"
     inkscape:current-layer="layer4"
     showgrid="true"
     inkscape:window-width="1920"
     inkscape:window-height="1016"
     inkscape:window-x="0"
     inkscape:window-y="27"
     inkscape:window-maximized="1"
     inkscape:grid-bbox="true">
    <inkscape:grid
       type="xygrid"
       id="grid71" />
  </sodipodi:namedview>
  <defs
     id="defs18">
    <inkscape:perspective
       sodipodi:type="inkscape:persp3d"
       inkscape:vp_x="0 : 12 : 1"
       inkscape:vp_y="0 : 1000 : 0"
       inkscape:vp_z="24 : 12 : 1"
       inkscape:persp3d-origin="12 : 8 : 1"
       id="perspective107" />
  </defs>
  <metadata
     id="metadata21">
    <rdf:RDF>
      <cc:Work
         rdf:about="">
        <dc:format>image/svg+xml</dc:format>
        <dc:type
           rdf:resource="http://purl.org/dc/dcmitype/StillImage" />
        <dc:title />
      </cc:Work>
    </rdf:RDF>
  </metadata>
  <g
     inkscape:groupmode="layer"
     id="layer2"
     inkscape:label="Ebene 2"
     style="display:inline" />
  <g
     inkscape:groupmode="layer"
     id="layer4"
     inkscape:label="Image"
     style="display:inline">
    <path
       d="m 8.562211,9.59125 v 13.635 H 23.777489 V 9.59125 Z M 23.143519,22.5445 H 9.196181 V 10.273 H 23.143519 Z M 22.50955,10.95475 H 9.830151 v 10.908 H 22.50955 Z M 21.875579,21.181 H 10.464121 v -2.07252 l 2.840184,-1.942987 2.358369,1.902082 c 0.126794,0.101586 0.304306,0.08863 0.412081,-0.03477 l 2.973319,-3.190594 2.827505,2.434529 z m 0,-3.776895 -2.656333,-2.283862 c -0.126161,-0.10908 -0.303673,-0.09544 -0.417788,0.02727 L 15.8218,18.34492 13.507177,16.476925 c -0.107779,-0.08795 -0.247249,-0.08795 -0.361363,-0.01364 l -2.681693,1.833908 V 11.6365 H 21.875579 Z M 13,15.04525 c 0.699903,0 1.26794,-0.610848 1.26794,-1.3635 0,-0.752652 -0.568037,-1.3635 -1.26794,-1.3635 -0.699903,0 -1.267939,0.610848 -1.267939,1.3635 0,0.752652 0.568036,1.3635 1.267939,1.3635 z M 13,13 c 0.349318,0 0.633971,0.306106 0.633971,0.68175 0,0.375644 -0.284653,0.68175 -0.633971,0.68175 -0.349317,0 -0.63397,-0.306106 -0.63397,-0.68175 C 12.36603,13.306106 12.650683,13 13,13 Z"
       id="path4154"
       inkscape:connector-curvature="0"
       style="stroke-width:0.65742606" />
    <rect
       style="fill:#ffffff"
       id="rect4348"
       width="6"
       height="6"
       x="8"
       y="9" />
    <rect
       style="fill:#ffffff"
       id="rect4353"
       width="1"
       height="2"
       x="14"
       y="12" />
    <rect
       style="fill:#ffffff"
       id="rect4358"
       width="1"
       height="2"
       x="14"
       y="12" />
    <rect
       style="fill:#ffffff"
       id="rect4360"
       width="1"
       height="2"
       x="13"
       y="12" />
  </g>
  <g
     inkscape:groupmode="layer"
     id="layer7"
     inkscape:label="Weiß"
     style="display:inline" />
  <g
     inkscape:groupmode="layer"
     id="layer5"
     inkscape:label="Tools"
     style="display:inline">
    <path
       d="M 14.203756,0.682981 H 1.374066 c -0.505542,0 -0.915751,0.410966 -0.915751,0.91744 v 12.852892 c 0,0.506933 0.410209,0.917899 0.915751,0.917899 h 12.82969 c 0.506,0 0.915751,-0.411425 0.915751,-0.917899 V 1.600422 c 0,-0.506475 -0.409751,-0.917441 -0.915751,-0.917441 z m 0.0046,11.989634 c 0,0.714483 -1.069752,1.785749 -1.782462,1.785749 -0.4015,0 -1.343378,-1.143816 -4.865675,-5.45046 L 7.175693,9.393155 7.791694,10.010292 7.018483,10.784928 6.584899,10.381769 6.014273,10.952988 6.416691,11.38783 c 0,0 -2.403046,3.070993 -3.116215,3.070993 -0.712709,-4.59e-4 -1.925461,-1.215448 -1.925461,-1.929472 0,-0.714024 3.065339,-3.121962 3.065339,-3.121962 L 4.873938,9.81055 5.444565,9.239331 5.041689,8.804947 5.815356,8.029852 6.431358,8.646989 6.889692,8.18781 C 6.605066,7.839752 6.299816,7.466898 5.98494,7.082565 5.516064,7.390215 4.956438,7.570673 4.354187,7.570673 2.708767,7.570673 1.375015,6.234461 1.375015,4.586006 1.374983,4.24208 1.435945,3.913308 1.542733,3.606117 L 3.666654,5.733955 5.041657,5.274775 5.49999,3.897237 3.37607,1.769399 C 3.682695,1.662408 4.010863,1.60134 4.354155,1.60134 c 1.64542,0 2.979172,1.336212 2.979172,2.984666 0,0.603362 -0.180125,1.16402 -0.487209,1.633761 0.383626,0.315455 0.755793,0.621269 1.10321,0.906419 L 11.229168,3.840298 11,3 13.291671,1.60134 14.208339,2.519698 12.812253,4.815595 11.973961,4.586006 8.767913,7.797967 c 4.298716,3.529252 5.440426,4.472407 5.440426,4.874648 z"
       id="path4198"
       inkscape:connector-curvature="0"
       style="stroke-width:0.45875663" />
  </g>
</svg>
