<?xml version="1.0" standalone="no"?>
<!DOCTYPE svg PUBLIC "-//W3C//DTD SVG 20010904//EN"
 "http://www.w3.org/TR/2001/REC-SVG-20010904/DTD/svg10.dtd">
<svg version="1.0" xmlns="http://www.w3.org/2000/svg"
 width="481.000000pt" height="465.000000pt" viewBox="0 0 481.000000 465.000000"
 preserveAspectRatio="xMidYMid meet">

<g transform="translate(0.000000,465.000000) scale(0.100000,-0.100000)"
fill="#000000" stroke="none">
<path d="M112 4629 c-53 -27 -88 -71 -101 -129 -14 -62 -14 -2668 0 -2730 13
-59 52 -108 103 -131 39 -18 80 -19 804 -19 l762 0 0 -810 0 -810 1565 0 1565
0 0 1405 0 1405 -890 0 -890 0 0 833 c0 541 -4 845 -10 869 -14 50 -55 97
-105 119 -38 18 -102 19 -1400 19 l-1360 0 -43 -21z m878 -198 c159 -50 293
-166 365 -316 50 -105 65 -166 65 -273 0 -95 -22 -188 -60 -266 -17 -33 -30
-63 -30 -67 0 -4 49 -48 108 -97 l109 -90 339 339 338 338 -23 88 c-12 48 -19
89 -14 90 4 2 111 66 237 144 l229 140 95 -94 94 -94 -142 -234 c-78 -129
-144 -236 -146 -238 -1 -2 -42 7 -89 20 l-87 22 -330 -330 -330 -330 343 -284
c543 -448 711 -598 761 -677 26 -43 19 -97 -24 -172 -64 -113 -229 -240 -312
-240 -64 0 -131 62 -361 330 -101 119 -593 714 -652 789 -2 3 -21 -13 -43 -34
l-40 -39 60 -61 c33 -33 60 -65 60 -71 0 -5 -33 -43 -74 -83 l-75 -74 -49 41
-49 41 -57 -58 -57 -57 41 -47 42 -47 -34 -42 c-18 -24 -85 -104 -149 -178
-218 -255 -392 -410 -459 -410 -129 0 -351 202 -389 356 -10 41 -9 51 8 88 43
88 214 259 485 486 l129 109 46 -39 46 -40 57 57 c64 63 64 53 1 123 l-23 26
80 79 80 79 63 -62 63 -62 46 47 47 48 -92 112 -91 111 -68 -34 c-131 -66
-278 -81 -423 -44 -229 59 -409 254 -451 490 -9 50 -13 107 -9 140 8 71 27
160 34 160 3 0 103 -97 222 -216 l217 -216 140 46 141 47 48 145 48 144 -219
219 -219 219 59 12 c33 7 64 14 69 16 26 10 197 -7 255 -25z m3690 -3026 l0
-1265 -1435 0 -1435 0 0 740 0 740 65 0 65 0 0 -670 0 -670 1305 0 1305 0 0
1125 0 1125 -760 0 -760 0 0 70 0 70 825 0 825 0 0 -1265z m-260 395 c0 -324
-2 -590 -5 -590 -2 0 -118 98 -257 218 -306 263 -310 266 -337 257 -12 -3
-161 -157 -333 -341 -171 -184 -313 -334 -315 -334 -2 0 -106 82 -231 183
-265 214 -273 220 -298 210 -10 -3 -138 -88 -284 -188 -146 -99 -271 -184
-277 -189 -10 -6 -13 56 -13 293 l0 301 403 0 c369 0 405 2 442 19 48 22 79
54 100 103 12 31 15 90 15 343 l0 305 695 0 695 0 0 -590z m-287 -530 l286
-245 0 -302 1 -303 -1175 0 -1175 0 2 216 3 216 290 199 c247 169 292 196 305
185 123 -104 480 -385 495 -389 11 -3 29 -1 41 6 11 7 157 159 325 339 167
180 307 326 310 325 4 -1 135 -112 292 -247z"/>
</g>
</svg>
